<?xml version="1.0" encoding="UTF-8" standalone="no"?>
<!-- Created with Inkscape (http://www.inkscape.org/) -->

<svg
   width="260"
   height="130"
   viewBox="0 0 68.791667 34.395834"
   version="1.1"
   id="svg1"
   xml:space="preserve"
   inkscape:export-filename="bitmap.png"
   inkscape:export-xdpi="102.55657"
   inkscape:export-ydpi="102.55657"
   xmlns:inkscape="http://www.inkscape.org/namespaces/inkscape"
   xmlns:sodipodi="http://sodipodi.sourceforge.net/DTD/sodipodi-0.dtd"
   xmlns="http://www.w3.org/2000/svg"
   xmlns:svg="http://www.w3.org/2000/svg"><sodipodi:namedview
     id="namedview1"
     pagecolor="#505050"
     bordercolor="#eeeeee"
     borderopacity="1"
     inkscape:showpageshadow="false"
     inkscape:pageopacity="0"
     inkscape:pagecheckerboard="true"
     inkscape:deskcolor="#d1d1d1"
     inkscape:document-units="mm"
     showborder="true"
     labelstyle="default"
     inkscape:lockguides="false" /><defs
     id="defs1"><rect
       x="62.800781"
       y="179.72156"
       width="122.41821"
       height="149.05728"
       id="rect4" /></defs><g
     inkscape:label="Layer 1"
     inkscape:groupmode="layer"
     id="layer1"><path
       d="m 36.2079,-47.003688 a 63.499569,63.500202 0 0 0 -9.037175,0.646472 63.499569,63.500202 0 0 0 -8.852689,1.925981 63.499569,63.500202 0 0 0 -8.4888881,3.166215 63.499569,63.500202 0 0 0 -7.951969,4.341854 63.499569,63.500202 0 0 0 -7.252788,5.429642 63.499569,63.500202 0 0 0 -6.4063269,6.406328 63.499569,63.500202 0 0 0 -5.429643,7.253304 63.499569,63.500202 0 0 0 -4.341853,7.9514524 63.499569,63.500202 0 0 0 -3.166215,8.488888 63.499569,63.500202 0 0 0 -1.925981,8.853206 63.499569,63.500202 0 0 0 -0.645955,9.0371746 63.499569,63.500202 0 0 0 0.645955,9.037174 63.499569,63.500202 0 0 0 1.925981,8.85269 63.499569,63.500202 0 0 0 3.166215,8.488887 63.499569,63.500202 0 0 0 4.341853,7.95197 63.499569,63.500202 0 0 0 5.429643,7.252792 63.499569,63.500202 0 0 0 6.4063269,6.40684 63.499569,63.500202 0 0 0 7.252788,5.42913 63.499569,63.500202 0 0 0 7.951969,4.34237 63.499569,63.500202 0 0 0 8.4888881,3.16621 63.499569,63.500202 0 0 0 8.852689,1.92546 63.499569,63.500202 0 0 0 9.037175,0.64648 63.499569,63.500202 0 0 0 9.036657,-0.64648 63.499569,63.500202 0 0 0 8.853207,-1.92546 63.499569,63.500202 0 0 0 8.488887,-3.16621 63.499569,63.500202 0 0 0 7.951453,-4.34237 63.499569,63.500202 0 0 0 7.253308,-5.42913 63.499569,63.500202 0 0 0 6.40632,-6.40684 63.499569,63.500202 0 0 0 5.42913,-7.252792 63.499569,63.500202 0 0 0 4.34237,-7.95197 63.499569,63.500202 0 0 0 3.16621,-8.488887 63.499569,63.500202 0 0 0 1.92547,-8.85269 63.499569,63.500202 0 0 0 0.64647,-9.037174 63.499569,63.500202 0 0 0 -0.0765,-3.116089 63.499569,63.500202 0 0 0 -0.22944,-3.108338 63.499569,63.500202 0 0 0 -0.38138,-3.0928336 63.499569,63.500202 0 0 0 -0.53278,-3.07113 63.499569,63.500202 0 0 0 -0.68265,-3.041158 63.499569,63.500202 0 0 0 -0.83147,-3.003435 63.499569,63.500202 0 0 0 -0.97772,-2.959509 63.499569,63.500202 0 0 0 -1.12189,-2.907833 63.499569,63.500202 0 0 0 -1.26298,-2.8494384 63.499569,63.500202 0 0 0 -1.40094,-2.784326 63.499569,63.500202 0 0 0 -1.53634,-2.711463 63.499569,63.500202 0 0 0 -1.6676,-2.633431 63.499569,63.500202 0 0 0 -1.79472,-2.548165 63.499569,63.500202 0 0 0 -1.9172,-2.457214 63.499569,63.500202 0 0 0 -2.03605,-2.360063 63.499569,63.500202 0 0 0 -2.14871,-2.257226 63.499569,63.500202 0 0 0 -2.25774,-2.149223 63.499569,63.500202 0 0 0 -2.35955,-2.035535 63.499569,63.500202 0 0 0 -2.45721,-1.917712 63.499569,63.500202 0 0 0 -2.548145,-1.794206 63.499569,63.500202 0 0 0 -2.633431,-1.667598 63.499569,63.500202 0 0 0 -2.711463,-1.536341 63.499569,63.500202 0 0 0 -2.784326,-1.401464 63.499569,63.500202 0 0 0 -2.848922,-1.262972 63.499569,63.500202 0 0 0 -2.907833,-1.121379 63.499569,63.500202 0 0 0 -2.959509,-0.977718 63.499569,63.500202 0 0 0 -3.003951,-0.831474 63.499569,63.500202 0 0 0 -3.041158,-0.682646 63.499569,63.500202 0 0 0 -3.070613,-0.5333 63.499569,63.500202 0 0 0 -3.093352,-0.381373 63.499569,63.500202 0 0 0 -3.108337,-0.229443 63.499569,63.500202 0 0 0 -3.115572,-0.07648 z"
       style="fill:#1a2128;stroke-width:0.275694"
       id="path3" /><g
       style="fill:#141414;fill-opacity:1"
       id="g3"
       transform="matrix(0.26267653,0,0,0.26267504,-27.291927,-47.00239)"><g
         id="g2"
         style="fill:#141414;fill-opacity:1">&#10;	<g
   id="g1"
   style="fill:#141414;fill-opacity:1">&#10;		<path
   d="M 361.08,0 H 122.4 C 54.799,0 0,54.798 0,122.4 v 238.68 c 0,67.602 54.799,122.4 122.4,122.4 h 238.68 c 67.602,0 122.4,-54.799 122.4,-122.4 V 122.4 C 483.48,54.798 428.682,0 361.08,0 Z"
   id="path1"
   style="fill:#141414;fill-opacity:1" />&#10;	</g>&#10;</g></g><text
       xml:space="preserve"
       transform="matrix(0.26458333,0,0,0.26458333,-10.786712,-48.979141)"
       id="text4"
       style="font-style:normal;font-variant:normal;font-weight:normal;font-stretch:normal;font-size:132px;font-family:'Bitstream Vera Serif';-inkscape-font-specification:'Bitstream Vera Serif';white-space:pre;shape-inside:url(#rect4);fill:#ffffff;fill-opacity:1;stroke-width:126.482;stroke-dasharray:none"><tspan
         x="62.800781"
         y="296.50977"
         id="tspan1">X</tspan></text><text
       xml:space="preserve"
       style="font-style:normal;font-variant:normal;font-weight:normal;font-stretch:normal;font-size:31.0444px;font-family:'Source Code Pro';-inkscape-font-specification:'Source Code Pro';fill:#ffffff;fill-opacity:1;stroke-width:33.465;stroke-dasharray:none"
       x="29.393908"
       y="29.374357"
       id="text5"><tspan
         sodipodi:role="line"
         id="tspan5"
         style="font-size:31.0444px;stroke-width:33.465"
         x="29.393908"
         y="29.374357">im</tspan></text></g></svg>
