<?xml version="1.0" encoding="UTF-8" standalone="no"?>
<!-- Created with Inkscape (http://www.inkscape.org/) -->

<svg
   width="295mm"
   height="150mm"
   viewBox="0 0 295 150"
   version="1.1"
   id="svg1"
   xmlns="http://www.w3.org/2000/svg"
   xmlns:svg="http://www.w3.org/2000/svg">
  <defs
     id="defs1" />
  <g
     id="layer1">
    <path
       style="fill:#000000;stroke-width:0.265504"
       id="path2"
       d="m 7.5694424,97.149568 c 0.091534,-0.47035 0.2204744,-0.93502 0.2746152,-1.41105 0.1045831,-0.91952 0.1338668,-1.84595 0.2007982,-2.76892 0.1183504,-1.63212 0.166534,-3.27076 0.3550501,-4.89636 0.7943465,-6.84977 1.6716731,-11.46735 3.5734081,-18.35954 1.22653,-4.44514 2.735887,-8.808513 4.103832,-13.212772 5.603559,-14.333305 5.168002,-14.052079 11.800075,-27.765907 1.866071,-3.858667 3.79198,-7.691165 5.843967,-11.455595 2.047531,-3.756258 5.584801,-11.4986122 10.625456,-13.3535632 1.81468,-0.667801 3.860386,0.278204 5.790576,0.417306 0.273578,0.421584 0.547157,0.843166 0.820733,1.26475 2.375743,2.702081 5.167567,5.0928992 7.127226,8.1062382 2.849388,4.381461 5.179417,9.104053 7.196855,13.919682 4.733793,11.299586 7.827673,23.865908 10.20179,35.820407 1.156315,5.822384 1.902552,11.717734 2.853828,17.576604 1.59027,11.95976 2.614531,23.991622 2.967666,36.050032 0.132578,4.52695 0.112368,9.02045 -0.239237,13.53236 -0.116113,0.51178 -0.177015,1.03907 -0.348331,1.53532 -0.130494,0.37803 -0.312715,0.86313 -0.766164,0.5964 -0.137251,-0.0807 -0.46501,-0.42382 -0.323953,-0.34982 5.850172,3.06876 8.245798,5.04778 5.781356,3.06354 -0.850287,-1.04304 -0.4174,-0.46788 -1.277948,-1.74067 0,0 -7.085616,-3.09635 -7.085616,-3.09635 v 0 c 0.782176,1.28989 0.414138,0.67657 1.105796,1.83896 2.114268,2.71251 0.786304,1.15943 7.747639,4.71902 0.373023,0.19074 1.058478,-0.31954 1.214337,-0.55341 0.502419,-0.7539 0.432213,-1.88541 0.497626,-2.68624 -0.175274,-4.76736 -0.579875,-9.50654 -1.060905,-14.25432 C 85.296661,107.31588 83.68457,94.983808 81.77079,82.697658 80.748251,76.796618 79.870414,70.869038 78.703182,64.994527 76.341431,53.108224 73.556551,40.861865 69.322397,29.456601 66.740371,22.501574 62.910782,13.022952 56.742143,7.8628288 53.139793,4.8494308 48.748278,2.9137308 44.751345,0.43918084 c -1.943087,0.05445 -4.086505,-0.691721 -5.82926,0.163362 C 34.499496,2.7724858 30.9991,11.477704 29.371394,14.827099 c -1.879535,3.867597 -3.653225,7.785168 -5.444928,11.693659 -7.047644,15.374012 -5.435351,11.896439 -12.041238,27.686069 -1.579699,4.30199 -3.2715511,8.56498 -4.7391024,12.905961 -2.120385,6.27206 -3.51842,11.43458 -4.849877,17.78024 -0.323982,1.54408 -0.5331461,3.10974 -0.8006642,4.66446 -0.5026269,2.92108 -0.1895212,1.72688 -0.79320062,3.69581 z" />
    <path
       style="fill:#000000;stroke-width:0.265504"
       id="path3"
       d="m 86.864516,132.42875 c 1.296888,-8.96572 3.117181,-17.85591 5.125042,-26.68872 0.935698,-4.11623 1.875162,-8.232642 2.922624,-12.322242 1.090047,-4.25591 2.325943,-8.47365 3.488925,-12.71048 3.029633,-10.43845 6.596793,-20.718902 10.786733,-30.754209 0.80609,-1.930669 3.92881,-9.020256 5.19023,-11.32922 0.5893,-1.078671 1.33584,-2.06499 2.00376,-3.097487 3.74337,-1.244301 1.5996,-1.101402 5.85572,0.25646 0.60331,0.192479 -2.18664,-1.120846 -1.79284,-0.627827 1.30102,1.628804 3.20225,2.69145 4.6447,4.198207 4.63569,4.842352 5.00287,6.175952 8.59138,12.017886 6.26598,12.292123 9.4916,25.76271 12.36528,39.15565 0.53258,2.14934 0.78669,4.35353 1.25289,6.51564 0.0949,0.43972 -0.0197,1.05483 0.35924,1.30104 2.28305,1.48343 4.66124,2.988122 7.30023,3.675732 0.56861,0.14816 0.55245,-1.03235 0.78184,-1.56987 0.32497,-0.761472 0.58617,-1.548252 0.87925,-2.322382 4.90164,-12.99661 12.15436,-24.94793 19.45796,-36.721691 3.02496,-4.79384 6.4581,-9.314048 10.4351,-13.368446 0.65103,-0.663707 3.45347,-3.819086 5.11208,-3.565493 1.06547,0.162907 1.77973,1.208556 2.6696,1.812832 -0.82681,0.273177 -2.65429,-0.02842 -2.48045,0.819526 0.5488,2.676877 2.89089,4.658156 4.10591,7.109031 1.51959,3.065217 2.88341,6.211292 4.08475,9.412769 3.02274,8.055272 4.96807,15.503222 6.65017,23.959222 0.86149,4.33079 1.43017,8.71399 2.14526,13.070982 1.90462,14.0986 2.94683,28.31291 2.97599,42.53782 -0.0477,4.1264 -1.15689,6.5001 7.50488,5.41215 1.19179,-0.1497 0.7553,-2.26515 1.15622,-3.38972 0.74513,-2.09002 1.52118,-4.16904 2.28176,-6.25356 10.02636,-25.98258 22.32691,-51.101812 36.62095,-75.03421 3.0324,-5.077124 6.28594,-10.020745 9.42891,-15.031117 6.38787,-9.850252 13.21099,-19.409568 20.32403,-28.753218 1.945,-2.554938 3.93002,-5.079661 5.87542,-7.634282 0,0 -6.18685,-3.5907402 -6.18685,-3.5907402 v 0 c -0.59094,1.062213 -1.15318,2.1406602 -1.77278,3.1866392 -2.04124,3.445976 -5.77129,9.237914 -7.69184,12.306131 -6.28743,10.044573 -7.27414,11.733466 -13.88853,22.560296 -8.58637,14.401612 -10.35792,17.129087 -18.69573,32.160099 -10.34728,18.65363 -19.98024,37.684082 -29.65762,56.684972 -0.97225,1.96849 -1.9388,3.93977 -2.91674,5.90548 -0.51668,1.03857 -2.16482,2.1125 -1.56712,3.10728 1.36061,2.26456 4.20542,3.22107 6.32433,4.81045 0.0936,0.0702 -0.21265,-0.13859 -0.24508,-0.25046 -0.27222,-0.93909 0.007,-1.99182 -0.3235,-2.91402 -1.46066,-14.58579 -3.01492,-29.16551 -5.13421,-43.67439 -0.69284,-4.357162 -1.27262,-8.733532 -2.07851,-13.071472 -1.6278,-8.76215 -3.1558,-15.37101 -5.99702,-23.75198 -0.67241,-1.983433 -5.16577,-13.94257 -7.1488,-16.243524 -2.66744,-3.095117 -6.22474,-5.307976 -9.33712,-7.961964 -1.06916,-0.446087 -2.04781,-1.342448 -3.20749,-1.338259 -1.57769,0.0057 -4.23917,3.345436 -4.85628,4.051562 -3.7409,4.280566 -7.0637,8.894333 -9.92154,13.804045 -4.11207,6.96294 -8.14239,13.96974 -12.19377,20.96756 -3.15607,5.45136 -3.9754,6.65758 -6.66887,11.82781 -0.58672,1.12623 -1.12172,2.2783 -1.68259,3.41746 -0.34817,0.71365 -0.66705,1.44216 -1.04451,2.14097 -1.61131,2.98307 -3.22218,0.6633 5.56405,4.902242 0.45581,0.21991 -0.55081,-0.85587 -0.71693,-1.33131 -0.76524,-2.190122 -0.93296,-4.560282 -1.7149,-6.742932 -3.37947,-13.46278 -6.74329,-27.05094 -12.85947,-39.602347 -3.48913,-6.009098 -3.62945,-7.015324 -8.17066,-12.033327 -1.35522,-1.497515 -2.71406,-3.036993 -4.36292,-4.208589 -3.25474,-2.312662 -6.69062,-4.39637 -10.26453,-6.184948 -1.13989,-0.570465 -2.46673,-0.930071 -3.73862,-0.822997 -0.98299,0.08275 -1.74956,0.90578 -2.62432,1.358667 -0.57138,1.117457 -1.21291,2.202188 -1.71413,3.352371 -0.80698,1.851864 -3.99236,10.608548 -4.41417,11.79611 -3.66076,10.306213 -6.988856,20.7254 -9.988936,31.2406 -3.310258,11.6054 -6.54164,23.229212 -9.741524,34.865002 -1.152479,4.19077 -2.255465,8.39489 -3.413734,12.58409 -0.274047,0.99116 -0.580781,1.97313 -0.871171,2.9597 z" />
    <path
       style="fill:#000000;stroke-width:0.265504"
       id="path4"
       d="M 262.20364,61.732868 C 251.7193,52.923275 240.26368,45.353297 228.96503,37.632173 c -7.39986,-5.02962 -14.57501,-10.37096 -21.64094,-15.850105 -2.86045,-2.116486 -6.75046,-5.767234 -9.92638,-6.100008 0,0 6.29254,4.88387 6.29254,4.88387 v 0 c 2.05609,1.694029 0.1678,0.128076 -6.45412,-3.691507 -0.12909,-0.07445 0.26265,0.141386 0.38906,0.220226 0.94097,0.58687 1.8001,1.293106 2.71117,1.922174 7.54813,5.568688 15.10517,11.128351 22.8864,16.375287 10.89296,7.403206 22.01622,14.625961 31.83992,23.425465 z" />
    <path
       style="fill:#000000;stroke-width:0.265504"
       id="path5"
       d="m 25.479684,37.843343 c 7.942612,0.556606 15.842327,1.503447 23.725885,2.595676 7.68632,1.151144 15.37099,2.339313 23.004228,3.802613 0,0 -5.863565,-4.395134 -5.863565,-4.395134 v 0 C 58.857495,38.539551 51.335527,37.439843 43.801304,36.424485 35.655887,35.286907 27.508202,34.178681 19.329087,33.307638 Z" />
    <path
       style="fill:#000000;stroke-width:0.265504"
       id="path6"
       d="m 212.27826,145.45881 c -4.4348,-0.22552 -3.09896,-0.15072 -9.00917,-0.49999 -9.23626,-0.54583 -12.31279,-0.68968 -21.91803,-1.51646 -10.10484,-0.86978 -13.92329,-1.3478 -23.90638,-2.44539 -3.70086,-0.4386 -7.39917,-0.89906 -11.10259,-1.31581 -8.35441,-0.94012 -14.5507,-1.56234 -22.95586,-2.25558 -12.77039,-1.05328 -13.19263,-0.85295 -26.16471,-2.12045 -4.638997,-0.45328 -9.267522,-1.00674 -13.901292,-1.51011 -17.610966,-2.30052 -35.227994,-5.00846 -52.45564,-9.372 -5.114735,-1.4439 -10.223234,-2.98951 -15.115429,-5.07358 -4.357393,-2.4243 2.428666,1.42863 3.669904,2.09503 0.462617,0.24837 -0.887643,-0.56061 -1.322914,-0.8537 -0.370606,-0.24955 -0.72945,-0.51591 -1.094173,-0.77387 0,0 -7.1639939,-2.81419 -7.1639939,-2.81419 v 0 c 3.7294579,2.70723 7.7352889,5.03864 11.8976679,7.03225 4.787605,1.88365 9.739285,3.37141 14.727348,4.62843 5.465307,1.18147 10.946304,2.15471 16.467777,3.05136 11.367426,1.84599 22.764785,3.51201 34.199621,4.8939 4.667183,0.52379 9.32935,1.09366 14.001544,1.57138 8.60736,0.88008 17.86697,1.5825 26.49277,2.36393 10.79865,0.97827 12.41202,1.1743 23.07091,2.35544 3.66847,0.40651 7.33566,0.82446 11.00349,1.23669 14.36021,1.47882 9.04945,0.95841 23.82002,2.36857 11.02764,1.05282 22.07214,2.02993 33.04291,3.58449 z" />
  </g>
</svg>
